<svg id="visual" viewBox="0 0 1440 300" width="1600" height="300" xmlns="http://www.w3.org/2000/svg" xmlns:xlink="http://www.w3.org/1999/xlink" version="1.1"><path d="M0 45L12.7 47.3C25.3 49.7 50.7 54.3 76 48C101.3 41.7 126.7 24.3 151.8 23.5C177 22.7 202 38.3 227.2 44.7C252.3 51 277.7 48 303 45.7C328.3 43.3 353.7 41.7 379 39.3C404.3 37 429.7 34 455 35.5C480.3 37 505.7 43 530.8 45C556 47 581 45 606.2 46.5C631.3 48 656.7 53 682 52.5C707.3 52 732.7 46 758 40.3C783.3 34.7 808.7 29.3 833.8 29.7C859 30 884 36 909.2 38.8C934.3 41.7 959.7 41.3 985 34.8C1010.3 28.3 1035.7 15.7 1061 12.5C1086.3 9.3 1111.7 15.7 1137 23.8C1162.3 32 1187.7 42 1212.8 44.2C1238 46.3 1263 40.7 1288.2 32.2C1313.3 23.7 1338.7 12.3 1364 15.8C1389.3 19.3 1414.7 37.7 1427.3 46.8L1440 56L1440 0L1427.3 0C1414.7 0 1389.3 0 1364 0C1338.7 0 1313.3 0 1288.2 0C1263 0 1238 0 1212.8 0C1187.7 0 1162.3 0 1137 0C1111.7 0 1086.3 0 1061 0C1035.7 0 1010.3 0 985 0C959.7 0 934.3 0 909.2 0C884 0 859 0 833.8 0C808.7 0 783.3 0 758 0C732.7 0 707.3 0 682 0C656.7 0 631.3 0 606.2 0C581 0 556 0 530.8 0C505.7 0 480.3 0 455 0C429.7 0 404.3 0 379 0C353.7 0 328.3 0 303 0C277.7 0 252.3 0 227.2 0C202 0 177 0 151.8 0C126.7 0 101.3 0 76 0C50.7 0 25.3 0 12.7 0L0 0Z" fill="#FFFFFF" stroke-linecap="round" stroke-linejoin="miter"></path></svg>