<svg xmlns="http://www.w3.org/2000/svg" viewBox="0 0 1440 320">
    <path fill="#ffffff" fill-opacity="1" d="M0,96L24,90.7C48,85,96,75,144,69.3C192,64,240,64,288,64C336,64,384,64,432,90.7C480,117,528,171,576,181.3C624,192,672,160,720,138.7C768,117,816,107,864,106.7C912,107,960,117,1008,138.7C1056,160,1104,192,1152,170.7C1200,149,1248,75,1296,42.7C1344,11,1392,21,1416,26.7L1440,32L1440,0L1416,0C1392,0,1344,0,1296,0C1248,0,1200,0,1152,0C1104,0,1056,0,1008,0C960,0,912,0,864,0C816,0,768,0,720,0C672,0,624,0,576,0C528,0,480,0,432,0C384,0,336,0,288,0C240,0,192,0,144,0C96,0,48,0,24,0L0,0Z"></path>
    <!-- <path fill="#ffffff" fill-opacity="1" d="M0,0L26.7,5.3C53.3,11,107,21,160,64C213.3,107,267,181,320,218.7C373.3,256,427,256,480,229.3C533.3,203,587,149,640,154.7C693.3,160,747,224,800,245.3C853.3,267,907,245,960,240C1013.3,235,1067,245,1120,256C1173.3,267,1227,277,1280,240C1333.3,203,1387,117,1413,74.7L1440,32L1440,0L1413.3,0C1386.7,0,1333,0,1280,0C1226.7,0,1173,0,1120,0C1066.7,0,1013,0,960,0C906.7,0,853,0,800,0C746.7,0,693,0,640,0C586.7,0,533,0,480,0C426.7,0,373,0,320,0C266.7,0,213,0,160,0C106.7,0,53,0,27,0L0,0Z"></path> -->
</svg>