<svg xmlns="http://www.w3.org/2000/svg" viewBox="0 0 1440 320">
<path d="M0 32.8652L20 35.2127C40 37.5602 80 42.2552 120 40.6853C160 39.1741 200 31.2513 240 30.5177C280 29.7841 320 35.9463 360 33.6428C400 31.2513 440 20.394 480 16.4326C520 12.4712 560 15.699 600 16.4326C640 17.1662 680 15.699 720 18.0025C760 20.394 800 26.5563 840 26.6003C880 26.5563 920 20.394 960 20.35C1000 20.394 1040 26.5563 1080 26.6003C1120 26.5563 1160 20.394 1200 18.7801C1240 17.1662 1280 20.394 1320 24.2528C1360 28.1702 1400 32.8652 1420 35.2127L1440 37.5602V0H1420C1400 0 1360 0 1320 0C1280 0 1240 0 1200 0C1160 0 1120 0 1080 0C1040 0 1000 0 960 0C920 0 880 0 840 0C800 0 760 0 720 0C680 0 640 0 600 0C560 0 520 0 480 0C440 0 400 0 360 0C320 0 280 0 240 0C200 0 160 0 120 0C80 0 40 0 20 0H0V32.8652Z" fill="#ff8000"/>
</svg>
