<svg width="250px" height="250px" viewBox="0 0 1103 214" fill="none" xmlns="http://www.w3.org/2000/svg">
<path d="M136 2H98L0 104H40L136 2Z" fill="#0070FE"/>
<path d="M40 113H0L98 211H136L40 113Z" fill="#0070FE"/>
<path d="M965 212.585L1003 213.058L1102.27 111.505L1062.27 111.007L965 212.585Z" fill="#0070FE"/>
<path d="M1062.39 101.939L1102.38 102.437L1005.62 2.47324L967.623 2L1062.39 101.939Z" fill="#0070FE"/>
<path d="M247 1L169 211H211L249 106L287 1H247Z" fill="#FF8000"/>
<path d="M356.5 211L293 1L273.5 53.5L323 211H356.5Z" fill="#FF8000"/>
<path d="M436 1H396L343 150.5L361 211L436 1Z" fill="#FF8000"/>
<path d="M661 1H619.331L538 210L592.722 174.07L661 1Z" fill="#FDCC0E"/>
<path d="M266 1.00003L246 1.00001L169.095 211.084L191.5 211.084L266 1.00003Z" fill="#0070FE"/>
<path d="M361 211L351.5 179.5L416 0.999992L436 1L361 211Z" fill="white"/>
<path d="M591.886 34L605 2H443.601L432 34H591.886Z" fill="#03C03D"/>
<path d="M525.032 212L536 180H379.463L367 212H525.032Z" fill="#03C03D"/>
<path d="M466 38H432L413 87H447L466 38Z" fill="#03C03D"/>
<path d="M558.5 122.5L570.5 91H411L400 122.5H558.5Z" fill="#03C03D"/>
<path d="M556.5 125.5H523.5L503.5 177H536.5L556.5 125.5Z" fill="#03C03D"/>
<path d="M448.5 38H430.5L413 87H430.5L448.5 38Z" fill="white"/>
<path d="M461.5 2H443.5L432 34H450L461.5 2Z" fill="white"/>
<path d="M429 91H411L400 122.5H418L429 91Z" fill="white"/>
<path d="M397 180H379.5L367 212H385L397 180Z" fill="white"/>
<path d="M788 210L716.332 0.949271L695.823 1.0227L675.313 1.09615L739.01 173.609L788 210Z" fill="#FDCC0E"/>
<path d="M613.5 212H539L594.5 175.5L664.5 118.5L664 175.5L613.5 212Z" fill="#FDCC0E"/>
<path d="M720.5 212.069L667 175.579L667 118.5L737 175.579L786 212.069L720.5 212.069Z" fill="#FDCC0E"/>
<path d="M842 211L769.5 0H752H732L805 211H842Z" fill="#CE2028"/>
<path d="M919.5 0H773L781.5 24.5H942.5L919.5 0Z" fill="#CE2028"/>
<path d="M845 211L839 193L932.5 193.5L915 211.5L845 211Z" fill="#CE2028"/>
<path d="M944.5 27H905L978 102.5H1017L944.5 27Z" fill="#CE2028"/>
<path d="M935 190H893L978 105.5H1017L935 190Z" fill="#CE2028"/>
</svg>
