<!-- <svg xmlns="http://www.w3.org/2000/svg" viewBox="0 0 1920 1080">
        <path fill="#03c03d" fill-opacity="1" d="M0,96L18.5,101.3C36.9,107,74,117,111,154.7C147.7,192,185,256,222,288C258.5,320,295,320,332,288C369.2,256,406,192,443,181.3C480,171,517,213,554,245.3C590.8,277,628,299,665,282.7C701.5,267,738,213,775,208C812.3,203,849,245,886,266.7C923.1,288,960,288,997,282.7C1033.8,277,1071,267,1108,261.3C1144.6,256,1182,256,1218,245.3C1255.4,235,1292,213,1329,176C1366.2,139,1403,85,1422,58.7L1440,32L1440,0L1421.5,0C1403.1,0,1366,0,1329,0C1292.3,0,1255,0,1218,0C1181.5,0,1145,0,1108,0C1070.8,0,1034,0,997,0C960,0,923,0,886,0C849.2,0,812,0,775,0C738.5,0,702,0,665,0C627.7,0,591,0,554,0C516.9,0,480,0,443,0C406.2,0,369,0,332,0C295.4,0,258,0,222,0C184.6,0,148,0,111,0C73.8,0,37,0,18,0L0,0Z"></path>
</svg> -->
<svg xmlns="http://www.w3.org/2000/svg" viewBox="0 0 1440 320">
<!-- <path fill="#03c03d" fill-opacity="1" d="M0,256L48,218.7C96,181,192,107,288,96C384,85,480,139,576,144C672,149,768,107,864,117.3C960,128,1056,192,1152,213.3C1248,235,1344,213,1392,202.7L1440,192L1440,0L1392,0C1344,0,1248,0,1152,0C1056,0,960,0,864,0C768,0,672,0,576,0C480,0,384,0,288,0C192,0,96,0,48,0L0,0Z"></path> -->
        <path fill="#03c03d" fill-opacity="1" d="M0,192L48,165.3C96,139,192,85,288,96C384,107,480,181,576,186.7C672,192,768,128,864,112C960,96,1056,128,1152,128C1248,128,1344,96,1392,80L1440,64L1440,0L1392,0C1344,0,1248,0,1152,0C1056,0,960,0,864,0C768,0,672,0,576,0C480,0,384,0,288,0C192,0,96,0,48,0L0,0Z"></path>
</svg>