<!-- <svg xmlns="http://www.w3.org/2000/svg" viewBox="0 0 1080 1920">
    <path fill="#03c03d" fill-opacity="1" d="M0,96L34.3,128C68.6,160,137,224,206,229.3C274.3,235,343,181,411,149.3C480,117,549,107,617,128C685.7,149,754,203,823,186.7C891.4,171,960,85,1029,85.3C1097.1,85,1166,171,1234,202.7C1302.9,235,1371,213,1406,202.7L1440,192L1440,320L1405.7,320C1371.4,320,1303,320,1234,320C1165.7,320,1097,320,1029,320C960,320,891,320,823,320C754.3,320,686,320,617,320C548.6,320,480,320,411,320C342.9,320,274,320,206,320C137.1,320,69,320,34,320L0,320Z"></path>
</svg> -->
<svg xmlns="http://www.w3.org/2000/svg" viewBox="0 0 1440 320">
    <path fill="#03c03d" fill-opacity="1" d="M0,64L48,96C96,128,192,192,288,208C384,224,480,192,576,197.3C672,203,768,245,864,240C960,235,1056,181,1152,170.7C1248,160,1344,192,1392,208L1440,224L1440,320L1392,320C1344,320,1248,320,1152,320C1056,320,960,320,864,320C768,320,672,320,576,320C480,320,384,320,288,320C192,320,96,320,48,320L0,320Z"></path>
</svg>